<?xml version="1.0" encoding="UTF-8"?>
<svg id="Layer_1" data-name="Layer 1" xmlns="http://www.w3.org/2000/svg" viewBox="0 0 693.85 280.94">
  <defs>
    <style>
      .cls-1 {
        fill: #fdfeff;
      }
    </style>
  </defs>
  <g>
    <path class="cls-1" d="M232.62,246.82h2.25c-2.95,3.59-5.02,10.74-5.02,17.07s2.07,13.46,5.02,17.05h-2.25c-3.63-4.63-5.41-10.35-5.41-17.05s1.78-12.44,5.41-17.07Z"/>
    <path class="cls-1" d="M263.93,246.82c5.39,0,9.04,3.54,9.04,8.77s-3.69,8.79-9.06,8.79h-6.91v10.62h-2.66v-28.18h9.59Zm-6.93,15.18h6.31c4.34,0,6.93-2.4,6.93-6.41s-2.58-6.39-6.93-6.39h-6.31v12.79Z"/>
    <path class="cls-1" d="M300.2,275v-25.76h-9.3v-2.42h21.29v2.42h-9.32v25.76h-2.68Z"/>
    <path class="cls-1" d="M339.54,275v-12.19l-10.1-16h3.05l8.34,13.38h.1l8.34-13.38h3.05l-10.1,16v12.19h-2.68Z"/>
    <path class="cls-1" d="M371.87,280.94h-2.25c2.21-2.73,5.02-9.02,5.02-17.05s-2.81-14.34-5.02-17.07h2.25c2.81,3.59,5.41,8.91,5.41,17.07s-2.6,13.46-5.41,17.05Z"/>
    <path class="cls-1" d="M416.42,275h-16.78v-28.18h2.66v25.76h14.12v2.42Z"/>
    <path class="cls-1" d="M438.99,275v-25.76h-9.3v-2.42h21.29v2.42h-9.32v25.76h-2.68Z"/>
    <path class="cls-1" d="M479.48,246.82c8.44,0,13.36,5.18,13.36,14.08s-4.9,14.1-13.36,14.1h-9.14v-28.18h9.14Zm-6.46,25.76h6.31c6.93,0,10.8-4.18,10.8-11.66s-3.87-11.68-10.8-11.68h-6.31v23.34Z"/>
  </g>
  <g>
    <path class="cls-1" d="M674.53,27.96h-78.38v6.49c1.41,.07,2.79,.21,4.17,.21,24.81,.01,49.63,0,74.44,0,6.45,0,6.63,.12,9.36,6.27h-87.93v6.85h92.15c.76,2.15,1.41,4.01,2.18,6.18h-94.2v6.62c1.7,.1,3.47,.2,6.21,.36-9.93,2.17-12.81,8.11-13.63,15.15-.5,4.23-.79,8.49-.8,12.74-.06,35.53-.03,98.29-.03,133.65-1.98-.34-55.04,.13-74.44,.18-2.1,0-.44-27.77-.47-31.77-.18-19.12-.41-38.23-.46-57.35-.06-19.45-.77-38.94,.31-58.35,1.67-30.13,20.13-58.45,55.44-69.82,14.53-4.68,29.6-6.47,45.13-4.71,2.82,.32,5.65,.49,8.45,1.39h-25.83v6.74c1.42,0,2.82,0,4.22,0,13.86,0,27.73,.26,41.57-.13,6.49-.18,10.66,2.86,15.22,6.09h-60.93v6.87c1.49,0,2.9,0,4.32,0,20.46,0,40.92,.23,61.37-.15,5.85-.11,8.75,2.35,12.56,6.48Z"/>
    <path class="cls-1" d="M690.26,102.72c-1.02,5.77-1.08,5.82-7.59,5.82-27.41,0-54.82,0-82.23,.01-1.42,0-2.84,0-4.45,0v-5.83h94.27Z"/>
    <path class="cls-1" d="M684.28,115.59q-2.75,5.75-9.26,5.75c-24.8,0-49.61,0-74.41,0-1.43,0-2.86,0-4.54,0v-5.75h88.21Z"/>
    <path class="cls-1" d="M693.21,89.5c0,1.23,.02,2.22,0,3.22-.04,1.99-.94,2.95-3.59,2.95-26.92-.07-53.84-.04-79.98-.04,3.27-1.73,7.05-3.79,10.91-5.73,.85-.43,1.98-.62,2.98-.62,22.7-.01,45.4,.02,68.09,.05,.39,0,.78,.08,1.59,.18Z"/>
    <path class="cls-1" d="M692.47,63.55c.32,1.83,.63,3.57,1.03,5.85-1.79,0-3.17,0-4.56,0-21.48,0-42.96-.02-64.43,.04-2.49,0-4.36-.41-6.27-2-1.98-1.65-4.72-2.63-7.11-3.89h81.34Z"/>
    <path class="cls-1" d="M674.39,128.42c-3.11,3.46-5.76,5.92-11.29,5.85-20.82-.29-41.66-.09-62.48-.08-1.42,0-2.85,0-4.53,0v-5.77h78.31Z"/>
    <path class="cls-1" d="M693.85,76.39v5.66h-69.36v-5.66h69.36Z"/>
    <path class="cls-1" d="M596.11,147.2v-5.86h60.44c-3.73,2.73-7.39,5.88-12.52,5.96-15.27,.24-30.56,.16-45.84,.19-.63,0-1.25-.17-2.08-.28Z"/>
    <path class="cls-1" d="M596.39,154.67h18.44c0,.09,.01,.19,.02,.28-6.14,.29-12.28,.57-18.41,.86-.01-.38-.03-.76-.04-1.14Z"/>
  </g>
  <path class="cls-1" d="M442.77,136.52v-62.29h48.29c.08,1.67,.23,3.33,.23,4.99,.01,40.3,.06,80.6-.03,120.91-.03,11.1-3.45,21.02-14.35,25.64-11.44,4.85-23.17,4.06-32.44-4.91-5.53-5.35-9.93-12.09-13.95-18.74-7.82-12.93-15.01-26.24-22.65-39.74v62.52h-48.19c-.12-1.26-.36-2.56-.36-3.86-.02-40.13-.32-80.26,.13-120.39,.17-15.36,7.93-29.84,28.86-28.94,14.02,.6,22.69,8.69,29.18,19.69,8.55,14.5,16.48,29.36,25.28,45.13Z"/>
  <path class="cls-1" d="M337.86,68.96v47.89c-6.19,0-12.18-.4-18.09,.09-10.92,.89-21.69,2.57-30.05,10.76-11.58,11.34-11.3,39.1,8.31,46.81,8.79,3.45,18.68,4.24,28.14,5.83,3.6,.61,7.4,.1,11.96,.1,0,7.77,0,15.29,0,22.81s0,14.76,0,22.64c-32.05,.82-62.52-1.72-86.15-26.28-14.46-15.03-21.75-33.43-20.74-54.12,1.79-36.73,27.99-63.94,61.47-70.82,14.56-2.99,29.56-3.81,45.15-5.71Z"/>
  <g>
    <g>
      <path class="cls-1" d="M0,144.33H62.32c.28,1.93,.54,3.7,.85,5.86H0v-5.86Z"/>
      <path class="cls-1" d="M58.08,219.15h55.2v-6.46c-23.38,.02-46.8-.19-70.19,.12-5.69,.08-9.87-2.19-14.62-5.81H113.22v-6.67c-28.98,0-57.96-.14-86.93,.1-4.78,.04-8.2-1.03-10.26-5.88H113.32v-6.72c-32.55,0-65.09,.01-97.64,0-5.46,0-6.01-.46-7.59-6.3H113.23v-6.48H4.95c-.63-2-1.2-3.79-1.9-6,39.2-.28,78.29,.11,117.46,1.27,11.08,.19,17.62-5.54,18.99-16.55,2.12-33.62,.46-67.45,.93-101.14,0-3.15,1.01-4.09,4.11-4.08,20,.11,39.99,.06,59.99,.05,6.44,0,6.46-.03,6.48,6.44,.08,31.47,.31,62.93,.15,94.4-.49,53.01-30.97,74.51-81.64,72.88-23.8,.81-47.62,.02-71.37-1.75-.03-.48-.05-.97-.08-1.45Z"/>
      <path class="cls-1" d="M2.78,124.6q.52-5.64,5.8-5.64c34.9,0,69.77,0,104.68,0v5.63H2.78Z"/>
      <path class="cls-1" d="M7.05,112.11q1.76-5.48,7.1-5.48c33.03,0,65.99,0,99.02,0v5.48H7.05Z"/>
      <path class="cls-1" d="M14.41,99.71c1.86-4.58,5.2-5.57,9.84-5.54,29.67,.22,59.31,.1,88.99,.11v5.43H14.41Z"/>
      <path class="cls-1" d="M113.2,81.72v5.67H26.92c3.24-2.76,6-5.8,10.93-5.76,25.13,.21,50.2,.08,75.35,.09Z"/>
      <path class="cls-1" d="M.77,137.76c-.25-3.53-.92-6.71,3.81-6.44,20.83,.15,41.66,.08,62.82,.08-1.6,2.25-1.92,5.85-4.82,6.32-20.49,.05-40.98,.04-61.81,.04Z"/>
      <path class="cls-1" d="M.67,156.69c19.72,0,39.35,0,59.06,0q5.39,0,6.96,5.74H1.56c-.29-1.88-.56-3.64-.89-5.74Z"/>
      <path class="cls-1" d="M113.15,68.99v5.34H51.41c20.57-6.69,41.02-5.22,61.73-5.34Z"/>
    </g>
    <rect class="cls-1" x="140.3" y="3.19" width="70.81" height="70.81"/>
  </g>
</svg>